<?xml version="1.0" encoding="UTF-8" standalone="no"?>
<!-- Created with Inkscape (http://www.inkscape.org/) -->

<svg
   xmlns:dc="http://purl.org/dc/elements/1.1/"
   xmlns:cc="http://creativecommons.org/ns#"
   xmlns:rdf="http://www.w3.org/1999/02/22-rdf-syntax-ns#"
   xmlns:svg="http://www.w3.org/2000/svg"
   xmlns="http://www.w3.org/2000/svg"
   xmlns:sodipodi="http://sodipodi.sourceforge.net/DTD/sodipodi-0.dtd"
   xmlns:inkscape="http://www.inkscape.org/namespaces/inkscape"
   width="855"
   height="371.26294"
   id="svg2"
   version="1.1"
   inkscape:version="0.48.4 r9939"
   sodipodi:docname="logo.svg">
  <defs
     id="defs4" />
  <sodipodi:namedview
     id="base"
     pagecolor="#ffffff"
     bordercolor="#666666"
     borderopacity="1.0"
     inkscape:pageopacity="0.0"
     inkscape:pageshadow="2"
     inkscape:zoom="0.69749999"
     inkscape:cx="788.48874"
     inkscape:cy="354.85361"
     inkscape:document-units="px"
     inkscape:current-layer="layer1"
     showgrid="true"
     inkscape:snap-bbox="true"
     inkscape:snap-bbox-midpoints="false"
     inkscape:snap-center="true"
     inkscape:snap-object-midpoints="true"
     inkscape:snap-smooth-nodes="false"
     inkscape:object-paths="false"
     inkscape:object-nodes="true"
     inkscape:snap-intersection-paths="false"
     inkscape:snap-nodes="true"
     inkscape:window-width="1279"
     inkscape:window-height="1052"
     inkscape:window-x="639"
     inkscape:window-y="0"
     inkscape:window-maximized="0"
     fit-margin-top="0"
     fit-margin-left="0"
     fit-margin-right="0"
     fit-margin-bottom="0"
     inkscape:snap-grids="true">
    <inkscape:grid
       type="xygrid"
       id="grid2985"
       empspacing="16"
       visible="true"
       enabled="true"
       snapvisiblegridlinesonly="true"
       units="in"
       spacingx="0.0625in"
       spacingy="0.0625in"
       dotted="false"
       originx="4.4444444e-08in"
       originy="0.00014241753in" />
  </sodipodi:namedview>
  <metadata
     id="metadata7">
    <rdf:RDF>
      <cc:Work
         rdf:about="">
        <dc:format>image/svg+xml</dc:format>
        <dc:type
           rdf:resource="http://purl.org/dc/dcmitype/StillImage" />
        <dc:title />
      </cc:Work>
    </rdf:RDF>
  </metadata>
  <g
     inkscape:label="Layer 1"
     inkscape:groupmode="layer"
     id="layer1"
     transform="translate(4e-6,-681.11206)">
    <path
       style="fill:#ff00bf;fill-opacity:0.5;stroke:none"
       d="m 495,681.11208 112.5,0 0,180.00004 -112.5,0 z"
       id="path2993-2-7-8-7-9-5"
       inkscape:connector-curvature="0"
       sodipodi:nodetypes="ccccc" />
    <path
       style="fill:#ff00bf;fill-opacity:0.5;stroke:none"
       d="m 618.75,681.11209 112.5,0 0,180.00006 -112.5,0 z"
       id="path2993-2-7-8-7-9-5-4"
       inkscape:connector-curvature="0"
       sodipodi:nodetypes="ccccc" />
    <path
       style="fill:#ff00bf;fill-opacity:0.5;stroke:none"
       d="m 742.5,681.11209 112.5,0 0,180.00006 -112.5,0 z"
       id="path2993-2-7-8-7-9-5-4-5"
       inkscape:connector-curvature="0"
       sodipodi:nodetypes="ccccc" />
    <path
       style="fill:#ffbf00;fill-opacity:0.5;stroke:none"
       d="m 0,681.11208 112.5,0 0,180.00004 -112.5,0 z"
       id="path2993-2-7"
       inkscape:connector-curvature="0"
       sodipodi:nodetypes="ccccc" />
    <path
       style="fill:#ffbf00;fill-opacity:0.5;stroke:none"
       d="m 123.75,681.11206 112.5,0 0,180.00004 -112.5,0 z"
       id="path2993-2-7-8"
       inkscape:connector-curvature="0"
       sodipodi:nodetypes="ccccc" />
    <path
       style="fill:#ffbf00;fill-opacity:0.5;stroke:none"
       d="m 371.25,681.11208 112.5,0 0,180.00004 -112.5,0 z"
       id="path2993-2-7-8-7-9"
       inkscape:connector-curvature="0"
       sodipodi:nodetypes="ccccc" />
    <path
       style="fill:#00e5e5;fill-opacity:0.5;stroke:none"
       d="m 123.75,872.36209 112.5,0 0,180.00011 -112.5,0 z"
       id="path2993-2-7-8-7-91"
       inkscape:connector-curvature="0"
       sodipodi:nodetypes="ccccc" />
    <path
       style="fill:#00e5e5;fill-opacity:0.5;stroke:none"
       d="m 0,872.3621 112.5,0 0,180.0001 -112.5,0 z"
       id="path2993-2-7-1"
       inkscape:connector-curvature="0"
       sodipodi:nodetypes="ccccc" />
    <path
       style="fill:#00e5e5;fill-opacity:0.5;stroke:none"
       d="m 371.25,872.36208 112.5,0 0,180.00012 -112.5,0 z"
       id="path2993-2-7-1-4-1"
       inkscape:connector-curvature="0"
       sodipodi:nodetypes="ccccc" />
    <path
       style="fill:#00e5e5;fill-opacity:0.5;stroke:none"
       d="m 495,872.36212 112.5,0 0,180.00008 -112.5,0 z"
       id="path2993-2-7-1-4-5"
       inkscape:connector-curvature="0"
       sodipodi:nodetypes="ccccc" />
    <path
       style="fill:#00e5e5;fill-opacity:0.5;stroke:none"
       d="m 618.75,872.36212 112.5,0 0,180.00008 -112.5,0 z"
       id="path2993-2-7-8-7-91-2"
       inkscape:connector-curvature="0"
       sodipodi:nodetypes="ccccc" />
    <path
       style="fill:#00e5e5;fill-opacity:0.5;stroke:none"
       d="m 247.5,872.36211 112.5,0 0,180.00009 -112.5,0 z"
       id="path2993-2-7-8-7-91-8"
       inkscape:connector-curvature="0"
       sodipodi:nodetypes="ccccc" />
    <path
       style="fill:#00e5e5;fill-opacity:0.5;stroke:none"
       d="m 742.5,872.36208 112.5,0 0,180.00012 -112.5,0 z"
       id="path2993-2-7-1-4-1-9"
       inkscape:connector-curvature="0"
       sodipodi:nodetypes="ccccc" />
    <path
       style="fill:#333333;fill-opacity:1;stroke:none"
       d="m -4e-6,681.11214 33.750004,4e-5 0,73.125 45,0 0,-73.125 33.75,-4e-5 0,180 -33.75,4e-5 0,-73.125 -45,0 0,73.125 -33.750004,-4e-5 z"
       id="path5394"
       inkscape:connector-curvature="0"
       sodipodi:nodetypes="ccccccccccccc" />
    <path
       style="fill:#333333;fill-opacity:1;stroke:none"
       d="m 180,0 c -28.125,0 -56.25,22.5 -56.25,56.25 l 0,123.75 33.75,0 0,-73.125 45,0 0,73.125 33.75,0 0,-123.75 C 236.25,22.5 206.5165,0 180,0 z m 0,33.750122 c 12.42641,0 22.5,10.073593 22.5,22.5 l 0,16.874878 -45,0 0,-16.874878 c 0,-12.426407 10.07359,-22.5 22.5,-22.5 z"
       transform="translate(-4e-6,681.11206)"
       id="path5402"
       inkscape:connector-curvature="0"
       sodipodi:nodetypes="ssccccccssssccss" />
    <path
       style="fill:#333333;fill-opacity:1;stroke:none"
       d="m 742.5,681.11218 0,33.75 39.375,0 0,146.25 33.75,0 0,-146.25 39.375,0 0,-33.75 z"
       id="path5427"
       inkscape:connector-curvature="0"
       sodipodi:nodetypes="ccccccccc" />
    <path
       style="fill:#333333;fill-opacity:1;stroke:none"
       d="m 371.25,872.37496 0,180.00004 112.5,0 0,-33.75 -78.75,-0.013 0,-39.37482 45,0 0,-33.75 -45,0 0,-39.388 78.75,0.0126 0,-33.73722 z"
       id="path2993-2-6-6-4"
       inkscape:connector-curvature="0"
       sodipodi:nodetypes="ccccccccccccc" />
    <path
       style="fill:#333333;fill-opacity:1;stroke:none"
       d="m 286.875,872.36218 33.75,0 0,180.00012 -33.75,0 z"
       id="path2993-2-8-6-0-92"
       inkscape:connector-curvature="0"
       sodipodi:nodetypes="ccccc" />
    <path
       style="fill:#333333;fill-opacity:1;stroke:none"
       d="m 371.25,0 0,180 33.75,0 0,-66.15625 66.15625,66.15625 12.59375,0 0,-35.09375 L 428.84375,90 483.75,35.09375 483.75,0 471.15625,0 405,66.15625 405,0 z"
       id="rect3152"
       inkscape:connector-curvature="0"
       sodipodi:nodetypes="cccccccccccccc"
       transform="translate(-4e-6,681.11206)" />
    <path
       style="fill:#333333;fill-opacity:1;stroke:none"
       d="m 551.25,681.11218 c -28.125,0 -56.25,22.5 -56.25,56.25 l 0,123.75 33.75,0 0,-73.125 45,0 0,73.125 33.75,0 0,-123.75 c 0,-33.75 -29.7335,-56.25 -56.25,-56.25 z m 0,33.75012 c 12.42641,0 22.5,10.07359 22.5,22.5 l 0,16.87488 -45,0 0,-16.87488 c 0,-12.42641 10.07359,-22.5 22.5,-22.5 z"
       id="path5402-2"
       inkscape:connector-curvature="0"
       sodipodi:nodetypes="ssccccccssssccss" />
    <path
       style="fill:#333333;fill-opacity:1;stroke:none"
       d="m 618.75,0 0,180 33.75,0 0,-66.125 66.125,66.125 12.625,0 0,-35.125 -36.09375,-36.09375 C 716.26627,100.6765 731.25,80.213094 731.25,56.25 731.25,25.183983 706.06602,0 675,0 z m 33.75,33.75 22.5,0 c 12.42641,0 22.5,10.073593 22.5,22.5 0,12.426407 -10.07359,22.5 -22.5,22.5 l -22.5,0 z"
       transform="translate(-4e-6,681.11206)"
       id="rect4045"
       inkscape:connector-curvature="0"
       sodipodi:nodetypes="ccccccccscccssscc" />
    <path
       style="fill:#333333;fill-opacity:1;stroke:none"
       d="m 742.5,872.36212 0,180.00008 112.5,0 0,-33.75 -78.75,-0.013 0,-39.37484 45,0 0,-33.75 -45,0 0,-39.38802 78.75,0.0126 0,-33.73722 z"
       id="path2993-2-6-6-4-4"
       inkscape:connector-curvature="0"
       sodipodi:nodetypes="ccccccccccccc" />
    <path
       style="fill:#333333;fill-opacity:1;stroke:none"
       d="m 708.75,872.36218 c -49.7106,0.0681 -90,40.39852 -90,90.12502 0,49.7685 40.35647,90.0938 90.125,90.0938 7.39009,-0.2783 22.375,-0.2188 22.375,-0.2188 l 0,-33.6406 c 0,0 -22.5,-0.1094 -22.5,0 -31.06602,0 -56.25,-25.184 -56.25,-56.2501 0,-31.066 25.18398,-56.24995 56.25,-56.24995 l 22.5,0 0,-33.85937 -22.375,0 z"
       id="path3105-9-4"
       inkscape:connector-curvature="0"
       sodipodi:nodetypes="csccccsccccc" />
    <path
       style="fill:#ffbf00;fill-opacity:0.5;stroke:none"
       d="m 247.5,681.11208 112.5,0 0,180.00004 -112.5,0 z"
       id="path2993-2-7-8-7"
       inkscape:connector-curvature="0"
       sodipodi:nodetypes="ccccc" />
    <path
       style="fill:#333333;fill-opacity:1;stroke:none;opacity:1"
       d="m 337.5,681.11218 c -49.7106,0.0681 -90,40.39852 -90,90.12502 0,49.7685 40.35647,90.0938 90.125,90.0938 7.39009,-0.2783 22.375,-0.2188 22.375,-0.2188 l 0,-33.6406 c 0,0 -22.5,-0.1094 -22.5,0 -31.06602,0 -56.25,-25.184 -56.25,-56.2501 0,-31.066 25.18398,-56.24995 56.25,-56.24995 l 22.5,0 0,-33.85937 -22.375,0 z"
       id="path3105-9-4-5"
       inkscape:connector-curvature="0"
       sodipodi:nodetypes="csccccsccccc" />
    <path
       style="fill:#333333;fill-opacity:1;stroke:none"
       d="m 213.75,872.36218 c -49.7106,0.0681 -90,40.39852 -90,90.12502 0,49.7685 40.35647,90.0938 90.125,90.0938 7.39009,-0.2783 22.375,-0.2188 22.375,-0.2188 l 0,-33.6406 c 0,0 -22.5,-0.1094 -22.5,0 -31.06602,0 -56.25,-25.184 -56.25,-56.2501 0,-31.066 25.18398,-56.24995 56.25,-56.24995 l 22.5,0 0,-33.85937 -22.375,0 z"
       id="path3105-9-4-8"
       inkscape:connector-curvature="0"
       sodipodi:nodetypes="csccccsccccc" />
    <path
       style="fill:#333333;fill-opacity:1;stroke:none"
       d="m 495,872.36218 0,180.00002 33.75,0 0,-98.65632 45,98.65632 10.59375,0 11.90625,0 11.25,0 0,-180.00002 -33.75,0 0,98.6562 -45,-98.6562 -10.59375,0 -11.90625,0 -11.25,0 z"
       id="rect4325"
       inkscape:connector-curvature="0" />
    <path
       style="fill:#333333;fill-opacity:1;stroke:none"
       d="M 53.4375 191.25 C 23.92478 191.25 0 215.17478 0 244.6875 C 0 274.20022 23.92478 298.125 53.4375 298.125 L 59.0625 298.125 C 69.9356 298.125 78.75 306.9394 78.75 317.8125 C 78.75 328.68565 69.9356 337.5 59.0625 337.5 L 0 337.5 L 0 371.25 L 59.0625 371.25 C 88.575212 371.25 112.5 347.32525 112.5 317.8125 C 112.5 288.2997 88.575212 264.375 59.0625 264.375 L 53.4375 264.375 C 42.56439 264.375 33.75 255.56061 33.75 244.6875 C 33.75 233.81439 42.56439 225 53.4375 225 L 112.5 225 L 112.5 191.25 L 53.4375 191.25 z "
       transform="translate(-4e-6,681.11206)"
       id="rect4374" />
  </g>
</svg>
