<svg xmlns:rdf="http://www.w3.org/1999/02/22-rdf-syntax-ns#" xmlns="http://www.w3.org/2000/svg" height="371.26" width="855" version="1.1" xmlns:cc="http://creativecommons.org/ns#" xmlns:dc="http://purl.org/dc/elements/1.1/">
 <path d="m495,0.00002,112.5,0,0,180-112.5,0z" fill="#ff00bf"/>
 <path d="m618.75,0.00003,112.5,0,0,180-112.5,0z" fill="#ff00bf"/>
 <path d="m742.5,0.00003,112.5,0,0,180-112.5,0z" fill="#ff00bf"/>
 <path d="m0.000004,0.00002,112.5,0,0,180-112.5,0z" fill="#ffbf00"/>
 <path d="m123.75,0,112.5,0,0,180-112.5,0z" fill="#ffbf00"/>
 <path d="m371.25,0.00002,112.5,0,0,180-112.5,0z" fill="#ffbf00"/>
 <path d="m123.75,191.25,112.5,0,0,180-112.5,0z" fill="#00e5e5"/>
 <path d="m0.000004,191.25,112.5,0,0,180-112.5,0z" fill="#00e5e5"/>
 <path d="m371.25,191.25,112.5,0,0,180-112.5,0z" fill="#00e5e5"/>
 <path d="m495,191.25,112.5,0,0,180-112.5,0z" fill="#00e5e5"/>
 <path d="m618.75,191.25,112.5,0,0,180-112.5,0z" fill="#00e5e5"/>
 <path d="m247.5,191.25,112.5,0,0,180-112.5,0z" fill="#00e5e5"/>
 <path d="m742.5,191.25,112.5,0,0,180-112.5,0z" fill="#00e5e5"/>
 <path d="m0,0.00008,33.75,0.00004,0,73.125,45,0,0-73.125l33.75,0.00008v180l-33.75,0.00004v-73.125h-45v73.125h-33.75z" fill="#333"/>
 <path d="m180,0c-28.125,0-56.25,22.5-56.25,56.25v123.75h33.75v-73.125h45v73.125h33.75v-123.75c0-33.75-29.73-56.25-56.25-56.25zm0,33.75c12.426,0,22.5,10.074,22.5,22.5v16.875h-45v-16.875c0-12.426,10.074-22.5,22.5-22.5z" fill="#333"/>
 <path d="m742.5,0.00012,0,33.75,39.375,0,0,146.25,33.75,0,0-146.25,39.375,0,0-33.75z" fill="#333"/>
 <path d="m371.25,191.26,0,180,112.5,0,0-33.75-78.75-0.013,0-39.375,45,0,0-33.75-45,0,0-39.388,78.75,0.0126,0-33.737z" fill="#333"/>
 <path d="m286.88,191.25,33.75,0,0,180-33.75,0z" fill="#333"/>
 <path d="m371.25,0,0,180,33.75,0,0-66.156,66.156,66.156,12.594,0,0-35.094l-54.91-54.91,54.91-54.906v-35.094h-12.59l-66.16,66.156v-66.156z" fill="#333"/>
 <path d="m551.25,0.00012c-28.125,0-56.25,22.5-56.25,56.25v123.75h33.75v-73.125h45v73.125h33.75v-123.75c0-33.75-29.734-56.25-56.25-56.25zm0,33.75c12.426,0,22.5,10.074,22.5,22.5v16.875h-45v-16.875c0-12.426,10.074-22.5,22.5-22.5z" fill="#333"/>
 <path d="m618.75,0,0,180,33.75,0,0-66.125,66.125,66.125,12.625,0,0-35.125-36.094-36.094c21.12-8.11,36.1-28.577,36.1-52.54,0-31.066-25.18-56.25-56.25-56.25zm33.75,33.75,22.5,0c12.426,0,22.5,10.074,22.5,22.5s-10.074,22.5-22.5,22.5h-22.5z" fill="#333"/>
 <path d="m742.5,191.25,0,180,112.5,0,0-33.75-78.75-0.013,0-39.375,45,0,0-33.75-45,0,0-39.388,78.75,0.0126,0-33.737z" fill="#333"/>
 <path d="m708.75,191.25c-49.711,0.0681-90,40.399-90,90.125,0,49.768,40.356,90.094,90.125,90.094,7.3901-0.2783,22.375-0.2188,22.375-0.2188v-33.641s-22.5-0.1094-22.5,0c-31.066,0-56.25-25.184-56.25-56.25s25.184-56.25,56.25-56.25h22.5v-33.859h-22.375z" fill="#333"/>
 <path d="m247.5,0.00002,112.5,0,0,180-112.5,0z" fill="#ffbf00"/>
 <path d="m337.5,0.00012c-49.711,0.0681-90,40.399-90,90.125,0,49.768,40.356,90.094,90.125,90.094,7.3901-0.2783,22.375-0.2188,22.375-0.2188v-33.641s-22.5-0.1094-22.5,0c-31.066,0-56.25-25.184-56.25-56.25s25.184-56.25,56.25-56.25h22.5v-33.859h-22.375z" fill="#333"/>
 <path d="m213.75,191.25c-49.711,0.0681-90,40.399-90,90.125,0,49.768,40.356,90.094,90.125,90.094,7.3901-0.2783,22.375-0.2188,22.375-0.2188v-33.641s-22.5-0.1094-22.5,0c-31.066,0-56.25-25.184-56.25-56.25s25.184-56.25,56.25-56.25h22.5v-33.859h-22.375z" fill="#333"/>
 <path d="m495,191.25,0,180,33.75,0,0-98.656,45,98.656,10.594,0,11.906,0,11.25,0,0-180-33.75,0,0,98.656-45-98.656-10.594,0-11.906,0-11.25,0z" fill="#333"/>
 <path d="M53.438,191.25c-29.513,0-53.438,23.92-53.438,53.44,0,29.51,23.925,53.43,53.438,53.43h5.625c10.873,0,19.688,8.8144,19.688,19.688,0,10.873-8.8144,19.688-19.688,19.688h-59.063v33.75h59.062c29.513,0,53.438-23.925,53.438-53.438s-23.925-53.438-53.438-53.438h-5.625c-10.873,0.01-19.687-8.81-19.687-19.68,0-10.88,8.814-19.69,19.688-19.69h59.062v-33.75h-59.062z" fill="#333"/>
</svg>
