<svg xmlns:rdf="http://www.w3.org/1999/02/22-rdf-syntax-ns#" xmlns="http://www.w3.org/2000/svg" height="335.19" width="769.51" version="1.1" xmlns:cc="http://creativecommons.org/ns#" xmlns:dc="http://purl.org/dc/elements/1.1/">
 <path d="m0.00001,173.39,100,0,0,161.8-100,0z" fill="#80efff"/>
 <path d="m111.58,173.39,100,0,0,161.8-100,0z" fill="#80efff"/>
 <path d="m223.17,173.39,100,0,0,161.8-100,0z" fill="#80efff"/>
 <path d="m334.75,173.39,100,0,0,161.8-100,0z" fill="#80efff"/>
 <path d="m446.34,173.39,100,0,0,161.8-100,0z" fill="#80efff"/>
 <path d="m557.92,173.39,100,0,0,161.8-100,0z" fill="#80efff"/>
 <path d="m669.51,173.39,100,0,0,161.8-100,0z" fill="#80efff"/>
 <path d="m0,0.00006,100,0,0,161.8-100,0z" fill="#ffdd80"/>
 <path d="m111.58,0.00006,100,0,0,161.8-100,0z" fill="#ffdd80"/>
 <path d="m223.17,0.00004,100,0,0,161.8-100,0z" fill="#ffdd80"/>
 <path d="m334.75,0.00002,100,0,0,161.8-100,0z" fill="#ffdd80"/>
 <path d="m446.34,0,100,0,0,161.8-100,0z" fill="#ff80bc"/>
 <path d="m557.92,0.00004,100,0,0,161.8-100,0z" fill="#ff80bc"/>
 <path d="m669.51,0.00004,100,0,0,161.8-100,0z" fill="#ff80bc"/>
 <path d="m0,0.00006,0,161.8,29.562,0,0-66.103,40.875,0,0,66.103,29.562,0,0-161.8-29.562,0,0,66.103-40.875,0v-66.103h-29.562z" fill="#333"/>
 <path d="m161.59,0.00006c-27.618,0-50.007,22.389-50.007,50.007v111.8h29.566v-66.103h40.88v66.103h29.566v-111.8c0-27.621-22.39-50.01-50.01-50.01zm0,29.566c11.289,0,20.44,9.1514,20.44,20.44v16.096h-40.88v-16.096c0-11.252,9.2288-20.44,20.44-20.44z" fill="#333"/>
 <path d="m334.75,0.00002,0,161.8,29.594,0,0-59.934,59.906,59.934,10.5,0,0-31.373-49.5-49.528,49.5-49.497,0-31.404-10.469,0-59.938,59.965,0-59.965-29.594,0z" fill="#333"/>
 <path d="m496.34,0c-27.618,0-50.007,22.389-50.007,50.007v111.8h29.566v-66.103h40.88v66.103h29.566v-111.8c0-27.621-22.39-50.01-50.01-50.01zm0,29.566c11.289,0,20.44,9.1514,20.44,20.44v16.096h-40.88v-16.096c0-11.252,9.2288-20.44,20.44-20.44z" fill="#333"/>
 <path d="m557.92,0.00004,0,161.8,29.594,0,0-59.934,59.906,59.934,10.5,0,0-31.373-33.281-33.311c19.389-6.8802,33.281-25.375,33.281-47.122,0-27.613-22.386-49.997-50-49.997zm29.594,29.561,19.906,0h0.5c11.287,0,20.438,9.1497,20.438,20.436,0,11.287-9.1501,20.436-20.438,20.436h-20.406z" fill="#333"/>
 <path d="m669.51,0.00004,0,29.561,35.219,0,0,132.24,29.562,0,0-132.24,35.219,0,0-29.561z" fill="#333"/>
 <rect height="161.8" width="29.562" y="173.39" x="258.39" fill="#333"/>
 <path d="m334.75,173.39,0,161.8,100,0,0-29.561-70.438,0,0-36.529,40.875,0,0-29.592-40.875,0,0-36.56,70.438,0,0-29.561z" fill="#333"/>
 <path d="m47.844,173.39c-26.422,0-47.844,21.421-47.844,47.841s21.422,47.841,47.844,47.841h4.3124c10.096,0,18.281,8.1849,18.281,18.28s-8.1854,18.28-18.281,18.28h-52.156v29.561h52.156c26.422,0,47.844-21.421,47.844-47.841s-21.422-47.841-47.844-47.841h-4.3124c-10.096,0-18.281-8.1849-18.281-18.28s8.1854-18.28,18.281-18.28h52.156v-29.561h-52.156z" fill="#333"/>
 <path d="m446.34,335.19,0-161.8,29.562,0,40.875,90.173,0-90.173,29.562,0,0,161.8-29.562,0-40.875-90.169,0.0001,90.174z" fill="#333"/>
 <path d="m669.51,173.39,0,161.8,100,0,0-29.561-70.438,0,0-36.529,40.875,0,0-29.592-40.875,0,0-36.56,70.438,0,0-29.561z" fill="#333"/>
 <path d="m304.08-0.0029497c-44.675,0-80.906,36.231-80.906,80.886,0,44.687,36.226,80.917,80.906,80.917,0.021,0,0.0425,0.00002,0.0625,0h19.031v-29.566h-19.031c-0.0211,0.00003-0.0414,0-0.0625,0-28.354,0-51.344-22.993-51.344-51.351s22.99-51.319,51.344-51.319c0.0211,0,0.0414-0.00003,0.0625,0h19.031v-29.566h-19.031c-0.021-0.00002-0.0425,0-0.0625,0z" fill="#333"/>
 <path d="m192.49,173.39c-44.675,0-80.906,36.231-80.906,80.886,0,44.687,36.226,80.917,80.906,80.917,0.021,0,0.0425,0.00002,0.0625,0h19.031v-29.566h-19.031c-0.0211,0.00003-0.0414,0-0.0625,0-28.354,0-51.344-22.993-51.344-51.351s22.99-51.319,51.344-51.319c0.0211,0,0.0414-0.00003,0.0625,0h19.031v-29.566h-19.031c-0.021-0.00002-0.0425,0-0.0625,0z" fill="#333"/>
 <path d="m638.83,173.39c-44.675,0-80.906,36.231-80.906,80.886,0,44.687,36.226,80.917,80.906,80.917,0.021,0,0.0425,0.00002,0.0625,0h19.031v-29.566h-19.031c-0.0211,0.00003-0.0414,0-0.0625,0-28.354,0-51.344-22.993-51.344-51.351s22.99-51.319,51.344-51.319c0.0211,0,0.0414-0.00003,0.0625,0h19.031v-29.566h-19.031c-0.021-0.00002-0.0425,0-0.0625,0z" fill="#333"/>
</svg>
